<svg xmlns="http://www.w3.org/2000/svg" viewBox="0 0 96 96" width="96" height="96">
  <defs>
    <linearGradient id="bg" x1="0" y1="0" x2="1" y2="1">
      <stop offset="0" stop-color="#1E88E5"/>
      <stop offset="1" stop-color="#0D3C91"/>
    </linearGradient>
  </defs>
  <circle cx="48" cy="48" r="46" fill="url(#bg)"/>
  <circle cx="48" cy="48" r="40" fill="none" stroke="#ffffff" stroke-opacity="0.35" stroke-width="2"/>
  <g fill="#ffffff" stroke="#ffffff" stroke-linejoin="round" stroke-linecap="round">
    <path d="M22 28 h34 a4 4 0 0 1 4 4 v18 a4 4 0 0 1 -4 4 h-20 l-9 8 v-8 h-5 a4 4 0 0 1 -4 -4 v-18 a4 4 0 0 1 4 -4 z" stroke="none"/>
    <path d="M64 40 h6 a4 4 0 0 1 4 4 v16 a4 4 0 0 1 -4 4 h-3 v7 l-8 -7 h-14 a4 4 0 0 1 -4 -4 v-2" fill="none" stroke-width="4"/>
  </g>
</svg>
